<?xml version="1.0" encoding="utf-8"?>
<!-- Generator: Adobe Illustrator 22.1.0, SVG Export Plug-In . SVG Version: 6.00 Build 0)  -->
<svg version="1.1" id="Layer_1" xmlns="http://www.w3.org/2000/svg" xmlns:xlink="http://www.w3.org/1999/xlink" x="0px" y="0px"
	 viewBox="0 0 77 77" style="enable-background:new 0 0 77 77;" xml:space="preserve">
<style type="text/css">
	.st0{fill:none;stroke:#131313;stroke-width:2;stroke-miterlimit:10;}
	.st1{fill:#131313;}
	.st2{fill:#FFFFFF;}
</style>
<title>Untitled-1</title>
<circle class="st0" cx="38.5" cy="38.5" r="37.5"/>
<circle class="st1" cx="38.5" cy="38.5" r="32.2"/>
<path class="st2" d="M38.5,23.9c5,0,5.6,0,7.5,0.1c1.2,0,2.3,0.2,3.5,0.6c1.6,0.6,2.9,1.9,3.5,3.5c0.4,1.1,0.6,2.3,0.6,3.5
	c0.1,2,0.1,2.6,0.1,7.5c0,5,0,5.6-0.1,7.5c0,1.2-0.2,2.3-0.6,3.5c-0.6,1.6-1.9,2.9-3.5,3.5c-1.1,0.4-2.3,0.6-3.5,0.6
	c-2,0.1-2.5,0.1-7.5,0.1s-5.6,0-7.5-0.1c-1.2,0-2.3-0.2-3.5-0.6c-1.6-0.6-2.9-1.9-3.5-3.5c-0.4-1.1-0.6-2.3-0.6-3.5
	c-0.1-2-0.1-2.5-0.1-7.5c0-5,0-5.6,0.1-7.5c0-1.2,0.2-2.3,0.6-3.5c0.6-1.6,1.9-2.9,3.5-3.5c1.1-0.4,2.3-0.6,3.5-0.6
	C33,23.9,33.6,23.9,38.5,23.9 M38.5,20.6c-5.1,0-5.7,0-7.7,0.1c-1.5,0-3.1,0.3-4.5,0.9c-2.5,1-4.5,2.9-5.4,5.4
	c-0.5,1.4-0.8,3-0.9,4.5c-0.1,2-0.1,2.6-0.1,7.7c0,5.1,0,5.7,0.1,7.7c0,1.5,0.3,3.1,0.9,4.5c1,2.5,2.9,4.5,5.4,5.4
	c1.4,0.5,3,0.8,4.5,0.9c2,0.1,2.6,0.1,7.7,0.1s5.7,0,7.7-0.1c1.5,0,3.1-0.3,4.5-0.9c2.5-1,4.5-2.9,5.4-5.4c0.5-1.4,0.8-3,0.9-4.5
	c0.1-2,0.1-2.6,0.1-7.7c0-5.1,0-5.7-0.1-7.7c0-1.5-0.3-3.1-0.9-4.5c-1-2.5-2.9-4.5-5.4-5.4c-1.4-0.5-3-0.8-4.5-0.9
	C44.2,20.6,43.6,20.6,38.5,20.6"/>
<path class="st2" d="M38.5,29.6c-5.3,0-9.6,4.3-9.6,9.6s4.3,9.6,9.6,9.6c5.3,0,9.6-4.3,9.6-9.6c0,0,0,0,0,0
	C48.1,33.9,43.8,29.6,38.5,29.6 M38.5,45.4c-3.4,0-6.2-2.8-6.2-6.2s2.8-6.2,6.2-6.2c3.4,0,6.2,2.8,6.2,6.2c0,0,0,0,0,0
	C44.7,42.6,42,45.4,38.5,45.4"/>
<path class="st2" d="M50.7,29.2c0,1.2-1,2.2-2.2,2.2c-1.2,0-2.2-1-2.2-2.2c0-1.2,1-2.2,2.2-2.2c0,0,0,0,0,0
	C49.7,27,50.7,28,50.7,29.2"/>
</svg>
