<?xml version="1.0" encoding="utf-8"?>
<!-- Generator: Adobe Illustrator 22.1.0, SVG Export Plug-In . SVG Version: 6.00 Build 0)  -->
<svg version="1.1" id="Layer_1" xmlns="http://www.w3.org/2000/svg" xmlns:xlink="http://www.w3.org/1999/xlink" x="0px" y="0px"
	 viewBox="0 0 75 75" style="enable-background:new 0 0 75 75;" xml:space="preserve">
<style type="text/css">
	.st0{fill:none;stroke:#131313;stroke-width:2;stroke-miterlimit:10;}
	.st1{fill:#131313;}
	.st2{fill:#FFFFFF;}
</style>
<title>Pinterest</title>
<circle class="st0" cx="37.5" cy="37.5" r="37.5"/>
<circle class="st1" cx="37.5" cy="37.5" r="32.2"/>
<path class="st2" d="M26.7,40.6c0.4,0.2,0.9,0.1,1.1-0.3c0-0.1,0.1-0.2,0.1-0.2c0.1-0.4,0.4-1.4,0.5-1.9c0.2-0.5,0-1-0.3-1.3
	c-1.1-1.3-1.6-2.9-1.5-4.5c-0.1-6.1,4.8-11,10.8-11.1c0.2,0,0.4,0,0.6,0c6.2,0,9.6,3.8,9.6,8.9c0,6.7-3,12.3-7.3,12.3
	c-2,0.1-3.7-1.4-3.8-3.4c0-0.4,0-0.7,0.1-1.1c0.7-2.9,2-6.1,2-8.2c0-1.9-1-3.5-3.1-3.5c-2.5,0-4.5,2.6-4.5,6c0,1.3,0.2,2.5,0.7,3.7
	c0,0-2.5,10.7-3,12.6c-0.5,2.9-0.5,5.9-0.1,8.8c0,0.2,0.2,0.3,0.4,0.3c0.1,0,0.1-0.1,0.2-0.1c1.8-2.3,3.2-4.8,4.2-7.6
	c0.3-1,1.6-6.4,1.6-6.4c0.8,1.5,3.2,2.9,5.7,2.9c7.4,0,12.5-6.8,12.5-15.9c0-6.9-5.8-13.3-14.7-13.3c-11,0-16.5,7.9-16.5,14.5
	C21.9,35.8,23.5,39.3,26.7,40.6z"/>
</svg>
