<?xml version="1.0" encoding="utf-8"?>
<!-- Generator: Adobe Illustrator 22.1.0, SVG Export Plug-In . SVG Version: 6.00 Build 0)  -->
<svg version="1.1" id="Layer_1" xmlns="http://www.w3.org/2000/svg" xmlns:xlink="http://www.w3.org/1999/xlink" x="0px" y="0px"
	 viewBox="0 0 100.5 25.5" style="enable-background:new 0 0 100.5 25.5;" xml:space="preserve">
<style type="text/css">
	.st0{fill:#FFFFFF;}
	.st1{fill:none;stroke:#000000;stroke-width:0.5;stroke-miterlimit:10;}
</style>
<title>SupportNow_Button</title>
<rect x="0.1" y="0.2" class="st0" width="100.2" height="25"/>
<path d="M6.5,15.1c0.5,0.3,1,0.4,1.6,0.4c0.9,0,1.4-0.5,1.4-1.1c0-0.6-0.4-1-1.3-1.3c-1.1-0.4-1.8-1-1.8-1.9c0.1-1.1,1-1.9,2-1.8
	c0,0,0.1,0,0.1,0c0.5,0,1,0.1,1.5,0.3l-0.2,0.7C9.5,10.1,9,10,8.6,10c-0.9,0-1.3,0.5-1.3,1c0,0.6,0.4,0.9,1.3,1.3
	c1.1,0.4,1.7,1,1.7,2c0,1-0.8,1.9-2.4,1.9c-0.6,0-1.2-0.1-1.7-0.4L6.5,15.1z"/>
<path d="M14.9,9.4v4c0,1.5,0.7,2.1,1.6,2.1c1,0,1.6-0.7,1.6-2.1v-4H19v3.9c0,2.1-1.1,2.9-2.5,2.9c-1.4,0-2.4-0.8-2.4-2.9v-4H14.9z"
	/>
<path d="M23,9.5c0.6-0.1,1.1-0.1,1.7-0.1c0.7-0.1,1.3,0.1,1.9,0.6c0.4,0.4,0.6,0.9,0.6,1.4c0,0.5-0.2,1-0.5,1.4
	c-0.6,0.5-1.3,0.8-2.1,0.7c-0.2,0-0.5,0-0.7-0.1v2.7H23L23,9.5z M23.9,12.7c0.2,0.1,0.5,0.1,0.7,0.1c1,0,1.7-0.5,1.7-1.4
	c0-0.9-0.6-1.3-1.6-1.3c-0.3,0-0.6,0-0.8,0.1L23.9,12.7z"/>
<path d="M30.9,9.5c0.6-0.1,1.1-0.1,1.7-0.1c0.7-0.1,1.3,0.1,1.9,0.6c0.4,0.4,0.6,0.9,0.6,1.4c0,0.5-0.2,1-0.5,1.4
	c-0.6,0.5-1.3,0.8-2.1,0.7c-0.2,0-0.5,0-0.7-0.1v2.7h-0.9V9.5z M31.7,12.7c0.2,0.1,0.5,0.1,0.7,0.1c1,0,1.7-0.5,1.7-1.4
	c0-0.9-0.6-1.3-1.6-1.3c-0.3,0-0.6,0-0.8,0.1L31.7,12.7z"/>
<path d="M44.4,12.7c0,2.3-1.4,3.5-3.1,3.5c-1.8,0-3-1.4-3-3.4c0-2.1,1.3-3.5,3.1-3.5C43.2,9.3,44.4,10.7,44.4,12.7z M39.2,12.8
	c0,1.4,0.8,2.7,2.1,2.7c1.4,0,2.2-1.3,2.2-2.8c0-1.3-0.7-2.7-2.1-2.7C39.9,10,39.2,11.3,39.2,12.8L39.2,12.8z"/>
<path d="M48.1,9.5c0.6-0.1,1.1-0.1,1.7-0.1c0.7-0.1,1.4,0.1,1.9,0.5c0.4,0.3,0.5,0.8,0.5,1.3c0,0.8-0.5,1.5-1.3,1.7v0
	c0.5,0.2,0.9,0.8,1,1.4c0.1,0.6,0.3,1.2,0.5,1.8h-0.9c-0.2-0.5-0.4-1.1-0.4-1.6c-0.2-0.9-0.6-1.3-1.3-1.3h-0.8v2.9h-0.9V9.5z
	 M48.9,12.5h0.9c0.9,0,1.5-0.5,1.5-1.3c0-0.9-0.6-1.2-1.5-1.3c-0.3,0-0.6,0-0.9,0.1L48.9,12.5z"/>
<path d="M57.3,10.1h-2V9.4h5v0.7h-2.1v6h-0.9V10.1z"/>
<path d="M68.1,16.1V9.4h0.9l2.2,3.4c0.5,0.7,0.9,1.4,1.2,2.2l0,0c-0.1-0.9-0.1-1.7-0.1-2.8V9.4h0.8v6.7h-0.9l-2.1-3.4
	c-0.5-0.7-0.9-1.5-1.3-2.2l0,0c0,0.8,0.1,1.7,0.1,2.8v2.9L68.1,16.1z"/>
<path d="M83,12.7c0,2.3-1.4,3.5-3.1,3.5c-1.8,0-3-1.4-3-3.4c0-2.1,1.3-3.5,3.1-3.5C81.8,9.3,83,10.7,83,12.7z M77.7,12.8
	c0,1.4,0.8,2.7,2.1,2.7c1.4,0,2.2-1.3,2.2-2.8c0-1.3-0.7-2.7-2.1-2.7C78.5,10,77.7,11.3,77.7,12.8z"/>
<path d="M87.7,16.1L86,9.4h0.9l0.8,3.4c0.2,0.8,0.4,1.7,0.5,2.3h0c0.1-0.7,0.3-1.5,0.5-2.3l0.9-3.4h0.9l0.8,3.4
	c0.2,0.8,0.4,1.6,0.5,2.3h0c0.1-0.7,0.3-1.5,0.5-2.3l0.9-3.4h0.9l-1.9,6.7h-0.9l-0.8-3.5c-0.2-0.7-0.3-1.5-0.4-2.2h0
	c-0.1,0.7-0.3,1.5-0.5,2.2l-1,3.5L87.7,16.1z"/>
<rect x="0.2" y="0.2" class="st1" width="100" height="25"/>
</svg>
