<?xml version="1.0" encoding="utf-8"?>
<!-- Generator: Adobe Illustrator 22.1.0, SVG Export Plug-In . SVG Version: 6.00 Build 0)  -->
<svg version="1.1" id="Layer_1" xmlns="http://www.w3.org/2000/svg" xmlns:xlink="http://www.w3.org/1999/xlink" x="0px" y="0px"
	 viewBox="0 0 77 77" style="enable-background:new 0 0 77 77;" xml:space="preserve">
<style type="text/css">
	.st0{fill:none;stroke:#131313;stroke-width:2;stroke-miterlimit:10;}
	.st1{fill:#131313;}
	.st2{fill:#FFFFFF;}
</style>
<title>Twitter</title>
<circle class="st0" cx="38.5" cy="38.5" r="37.5"/>
<circle class="st1" cx="38.5" cy="38.5" r="32.2"/>
<path class="st2" d="M22.8,51.4c3.4,2.2,7.3,3.3,11.4,3.3c13.8,0,21.6-11.6,21.1-22.1c1.5-1,2.7-2.3,3.7-3.8c-1.4,0.6-2.8,1-4.3,1.2
	c1.5-0.9,2.7-2.4,3.3-4.1c-1.5,0.9-3,1.5-4.7,1.8c-2.8-3-7.5-3.1-10.5-0.3c-1.9,1.8-2.7,4.5-2.1,7.1c-6-0.3-11.5-3.1-15.3-7.8
	c-2,3.4-1,7.7,2.3,9.9c-1.2,0-2.3-0.4-3.4-0.9c0,3.6,2.5,6.7,5.9,7.4c-1.1,0.3-2.2,0.3-3.3,0.1c1,3,3.8,5.1,6.9,5.2
	C30.7,50.8,26.7,51.9,22.8,51.4z"/>
</svg>
