<svg id="Layer_1" data-name="Layer 1" xmlns="http://www.w3.org/2000/svg" viewBox="0 0 385.18359 54"><defs><style>.cls-1{fill:#231f20;}</style></defs><title>Veos_Logo</title><path d="M134.34743,141.14016V123.515a.515.515,0,0,0-1.03,0v17.62518c.17053-.00976.342-.016.515-.016S134.17689,141.1304,134.34743,141.14016Z" transform="translate(-57.4082 -123)"/><path d="M146.57706,137.25538a.5149.5149,0,0,0,.72823.00007l3.74542-3.74537a.515.515,0,1,0-.72822-.72836l-3.74543,3.74537A.51487.51487,0,0,0,146.57706,137.25538Z" transform="translate(-57.4082 -123)"/><path d="M140.461,144.09968l4.97216-4.97216a.515.515,0,1,0-.72823-.72837l-4.97223,4.97223A8.92957,8.92957,0,0,1,140.461,144.09968Z" transform="translate(-57.4082 -123)"/><path d="M160.31745,149.485H142.69227c.00977.17055.016.342.016.515s-.0062.34445-.016.515h17.62518a.515.515,0,0,0,0-1.03Z" transform="translate(-57.4082 -123)"/><path d="M147.30529,162.74461a.51494.51494,0,1,0-.72823.72823l3.74543,3.74544a.51493.51493,0,0,0,.72822-.72823Z" transform="translate(-57.4082 -123)"/><path d="M139.73274,156.62856l4.97217,4.97214a.51493.51493,0,0,0,.72823-.72822L140.461,155.9003A8.93005,8.93005,0,0,1,139.73274,156.62856Z" transform="translate(-57.4082 -123)"/><path d="M133.31745,158.85984V176.485a.515.515,0,1,0,1.03,0V158.85984c-.17054.00976-.342.016-.515.016S133.488,158.8696,133.31745,158.85984Z" transform="translate(-57.4082 -123)"/><path d="M138.49835,132.58644a.51447.51447,0,0,0,.6308-.36418l1.37124-5.1176a.515.515,0,1,0-.99491-.26655l-1.37124,5.11761A.515.515,0,0,0,138.49835,132.58644Z" transform="translate(-57.4082 -123)"/><path d="M138.44346,134.781a.515.515,0,1,0-.99491-.26655l-1.81982,6.79177a8.79742,8.79742,0,0,1,.99447.26821Z" transform="translate(-57.4082 -123)"/><path d="M157.02665,137.2035a.515.515,0,0,0-.515-.892L141.24788,145.124a8.86184,8.86184,0,0,1,.51537.89181Z" transform="translate(-57.4082 -123)"/><path d="M156.99417,155.673l-5.11738-1.37124a.515.515,0,0,0-.26669.99492l5.11739,1.37122a.515.515,0,1,0,.26668-.9949Z" transform="translate(-57.4082 -123)"/><path d="M149.05126,154.611a.515.515,0,0,0,.2667-.99492l-6.79178-1.81981a8.8012,8.8012,0,0,1-.2682.99448Z" transform="translate(-57.4082 -123)"/><path d="M146.62893,173.19421a.515.515,0,1,0,.892-.515l-8.81254-15.26377a8.8639,8.8639,0,0,1-.89182.51537Z" transform="translate(-57.4082 -123)"/><polygon points="81.3 19.585 84.817 13.494 84.817 13.493 81.3 19.585 81.3 19.585"/><path d="M142.22538,136.493l5.29558-9.1722a.515.515,0,1,0-.892-.515l-8.81233,15.26339a8.86249,8.86249,0,0,1,.8918.51537Z" transform="translate(-57.4082 -123)"/><polygon points="81.3 19.585 84.817 13.493 81.3 19.585 81.3 19.585"/><path d="M156.7249,143.33277l-5.11682,1.37108a.515.515,0,1,0,.2667.99492l5.11681-1.37109a.515.515,0,0,0-.26669-.99491Z" transform="translate(-57.4082 -123)"/><path d="M149.318,146.38381a.515.515,0,0,0-.2667-.99492l-6.7933,1.8203a8.80506,8.80506,0,0,1,.26821.99449Z" transform="translate(-57.4082 -123)"/><path d="M156.51167,163.68852a.515.515,0,0,0,.515-.892l-15.2634-8.81231a8.86279,8.86279,0,0,1-.51537.8918Z" transform="translate(-57.4082 -123)"/><path d="M139.12858,167.77565a.515.515,0,1,0-.99491.26669l1.37109,5.11681a.515.515,0,0,0,.99491-.26668Z" transform="translate(-57.4082 -123)"/><path d="M137.44855,165.48551a.515.515,0,0,0,.99491-.26669l-1.82024-6.79328a8.796,8.796,0,0,1-.99449.26821Z" transform="translate(-57.4082 -123)"/><path class="cls-1" d="M131.0985,163.098a13.098,13.098,0,0,1,0-26.19594.61638.61638,0,1,1,0,1.23275,11.86522,11.86522,0,0,0,0,23.73044.61638.61638,0,1,1,0,1.23275Z" transform="translate(-57.4082 -123)"/><path class="cls-1" d="M131.0985,159.5319A9.53185,9.53185,0,0,1,124.35859,143.26a.6164.6164,0,0,1,.87159.87184,8.29906,8.29906,0,0,0,5.86832,14.16735.61638.61638,0,1,1,0,1.23275Z" transform="translate(-57.4082 -123)"/><path class="cls-1" d="M128.42281,155.24978a.61453.61453,0,0,1-.30807-.08282,5.96633,5.96633,0,0,1,2.98376-11.13256.61638.61638,0,1,1,0,1.23275,4.73354,4.73354,0,0,0-2.36642,8.83271.61638.61638,0,0,1-.30927,1.14992Z" transform="translate(-57.4082 -123)"/><path class="cls-1" d="M131.09911,167.2585c-.014,0-.02805-.00048-.04214-.00144-5.294-.35779-11.87473-3.3017-19.55968-8.74964a100.9935,100.9935,0,0,1-9.947-8.06055.61626.61626,0,0,1-.01024-.88387,94.44932,94.44932,0,0,1,9.95181-8.348c7.697-5.58289,14.29208-8.43375,19.60206-8.47347a.61639.61639,0,0,1,.00915,1.23275c-6.28342.04695-13.73168,4.50062-18.87348,8.2286a95.24611,95.24611,0,0,0-9.35759,7.78668c2.78814,2.53978,17.302,15.29633,28.268,16.03767a.61635.61635,0,0,1-.04093,1.2313Z" transform="translate(-57.4082 -123)"/><path class="cls-1" d="M61.7583,138.98535l5.75977,16.11035,5.70019-16.11035h4.3501L69.2583,160.28516h-3.48L57.4082,138.98535Z" transform="translate(-57.4082 -123)"/><path class="cls-1" d="M99.1377,156.65527v3.62989H84.34814V138.98535h14.52v3.62988H88.48779v5.12989H97.458v3.36035H88.48779v5.5498Z" transform="translate(-57.4082 -123)"/><path class="cls-1" d="M176.855,144.56543a5.186,5.186,0,0,0-.76514-.57031,9.43646,9.43646,0,0,0-1.35009-.70508,11.73155,11.73155,0,0,0-1.7251-.585,7.5709,7.5709,0,0,0-1.88965-.23926,4.23875,4.23875,0,0,0-2.55029.62988,2.08346,2.08346,0,0,0-.83985,1.76953,1.81552,1.81552,0,0,0,.31494,1.09473,2.70549,2.70549,0,0,0,.915.76563,7.68735,7.68735,0,0,0,1.51514.59961q.91479.271,2.11475.57031,1.55932.42041,2.835.89941a7.70629,7.70629,0,0,1,2.16015,1.2002,4.96075,4.96075,0,0,1,1.36475,1.72558,5.72035,5.72035,0,0,1,.48047,2.47461,6.16623,6.16623,0,0,1-.645,2.92481,5.41284,5.41284,0,0,1-1.74024,1.96484,7.54067,7.54067,0,0,1-2.52,1.0957,12.67378,12.67378,0,0,1-2.98487.34473,16.04842,16.04842,0,0,1-4.74023-.71973,14.64385,14.64385,0,0,1-4.19971-2.04l1.83008-3.57031a5.77069,5.77069,0,0,0,.97461.70508,14.86608,14.86608,0,0,0,1.665.87012,12.97784,12.97784,0,0,0,2.12988.73535,9.66334,9.66334,0,0,0,2.40039.2998q3.41968,0,3.41992-2.19043a1.79754,1.79754,0,0,0-.39013-1.16992,3.32166,3.32166,0,0,0-1.10987-.83984,10.63414,10.63414,0,0,0-1.74023-.66016q-1.02027-.29883-2.27979-.66015a19.2821,19.2821,0,0,1-2.65527-.915,6.97706,6.97706,0,0,1-1.875-1.16992,4.386,4.386,0,0,1-1.125-1.55958,5.40334,5.40334,0,0,1-.375-2.11523,6.6143,6.6143,0,0,1,.6001-2.87988,5.82824,5.82824,0,0,1,1.665-2.10059,7.54636,7.54636,0,0,1,2.47509-1.27441,10.22625,10.22625,0,0,1,3.02979-.43555,11.76456,11.76456,0,0,1,4.14014.70508,15.4728,15.4728,0,0,1,3.30029,1.665Z" transform="translate(-57.4082 -123)"/><path class="cls-1" d="M203.88428,138.98535h3.66015l8.1001,21.29981h-4.26025l-1.98-5.30957h-7.43994l-1.94971,5.30957h-4.26026Zm4.77,13.08008-2.93994-8.37012-3.06006,8.37012Z" transform="translate(-57.4082 -123)"/><path class="cls-1" d="M222.48438,160.28516V138.98535h9.02978a6.04461,6.04461,0,0,1,2.71484.61524,7.02776,7.02776,0,0,1,2.145,1.62011,7.65,7.65,0,0,1,1.41016,2.2793,6.86752,6.86752,0,0,1,.50977,2.56543,7.39253,7.39253,0,0,1-.48,2.625,7.28486,7.28486,0,0,1-1.3496,2.26465,6.63006,6.63006,0,0,1-2.1001,1.58984,6.072,6.072,0,0,1-2.7002.60059h-5.04v7.13965Zm4.13964-10.76954h4.8003a2.37078,2.37078,0,0,0,1.90478-.93066,3.84291,3.84291,0,0,0,.76514-2.51953,4.149,4.149,0,0,0-.24024-1.45508,3.54208,3.54208,0,0,0-.62988-1.09473,2.50762,2.50762,0,0,0-.915-.6748,2.67574,2.67574,0,0,0-1.06494-.22559H226.624Z" transform="translate(-57.4082 -123)"/><path class="cls-1" d="M245.67383,160.28516V138.98535h9.02978a6.04466,6.04466,0,0,1,2.71485.61524,7.02788,7.02788,0,0,1,2.145,1.62011,7.63036,7.63036,0,0,1,1.41015,2.2793,6.86732,6.86732,0,0,1,.50977,2.56543,7.40307,7.40307,0,0,1-.47949,2.625,7.29575,7.29575,0,0,1-1.3501,2.26465,6.62994,6.62994,0,0,1-2.1001,1.58984,6.072,6.072,0,0,1-2.70019.60059h-5.04v7.13965Zm4.13965-10.76954h4.80029a2.37077,2.37077,0,0,0,1.90478-.93066,3.84291,3.84291,0,0,0,.76514-2.51953,4.14926,4.14926,0,0,0-.24023-1.45508,3.54229,3.54229,0,0,0-.62989-1.09473,2.50767,2.50767,0,0,0-.915-.6748,2.67575,2.67575,0,0,0-1.06495-.22559h-4.62011Z" transform="translate(-57.4082 -123)"/><path class="cls-1" d="M273.57324,138.98535h3.66016l8.09961,21.29981h-4.25977l-1.98047-5.30957h-7.43945l-1.9502,5.30957h-4.25976Zm4.76953,13.08008-2.93945-8.37012-3.06055,8.37012Z" transform="translate(-57.4082 -123)"/><path class="cls-1" d="M292.17383,160.28516V138.98535h9.41992a6.04461,6.04461,0,0,1,2.71484.61524,7.03146,7.03146,0,0,1,2.14453,1.62011,7.63018,7.63018,0,0,1,1.41016,2.2793,6.86752,6.86752,0,0,1,.50977,2.56543,7.07575,7.07575,0,0,1-1.03516,3.76465,5.935,5.935,0,0,1-2.80469,2.44531l4.86035,8.00977h-4.65039l-4.34961-7.13965h-4.08007v7.13965Zm4.13965-10.76954h5.18945a2.18484,2.18484,0,0,0,1.06543-.2705,2.7268,2.7268,0,0,0,.85547-.73438,3.68334,3.68334,0,0,0,.56933-1.0957,4.25182,4.25182,0,0,0,.21-1.34961,3.84182,3.84182,0,0,0-.24023-1.37988,3.60686,3.60686,0,0,0-.64453-1.09473,2.92234,2.92234,0,0,0-.92969-.7207,2.43164,2.43164,0,0,0-1.06543-.25489h-5.00976Z" transform="translate(-57.4082 -123)"/><path class="cls-1" d="M331.41309,156.65527v3.62989h-14.79V138.98535h14.5205v3.62988H320.7627v5.12989h8.9707v3.36035h-8.9707v5.5498Z" transform="translate(-57.4082 -123)"/><path class="cls-1" d="M339.15332,160.28516V138.98535H343.293v17.66992h10.86035v3.62989Z" transform="translate(-57.4082 -123)"/><path class="cls-1" d="M361.14258,163.73535l.81054-3.57031h-1.25976v-4.19922h3.47949V160.165l-1.22949,3.57031Z" transform="translate(-57.4082 -123)"/><path class="cls-1" d="M384.332,160.28516V138.98535h4.14063v21.29981Z" transform="translate(-57.4082 -123)"/><path class="cls-1" d="M401.55273,146.63574v13.64942h-4.14062V138.98535h3.21l11.10059,13.98047v-13.9502h4.13964v21.26954H412.502Z" transform="translate(-57.4082 -123)"/><path class="cls-1" d="M423.51172,149.48535a11.034,11.034,0,0,1,.70508-3.85449,10.34635,10.34635,0,0,1,5.35547-5.83594,10.2007,10.2007,0,0,1,4.43945-.92969,9.68587,9.68587,0,0,1,5.085,1.29,8.24657,8.24657,0,0,1,3.19531,3.36035l-3.17969,2.18946a5.44238,5.44238,0,0,0-1.0205-1.51465,5.08711,5.08711,0,0,0-1.29-.97461,5.80578,5.80578,0,0,0-1.43946-.52539,6.872,6.872,0,0,0-1.4707-.165,5.58351,5.58351,0,0,0-2.71484.62988,5.97473,5.97473,0,0,0-1.91992,1.63477,7.22568,7.22568,0,0,0-1.15528,2.28027,8.642,8.642,0,0,0-.38965,2.53516,8.27263,8.27263,0,0,0,.4502,2.71484,7.20785,7.20785,0,0,0,1.27539,2.29492,6.35588,6.35588,0,0,0,1.97949,1.58985,5.41111,5.41111,0,0,0,2.53516.60058,6.67027,6.67027,0,0,0,1.5-.18066,5.59628,5.59628,0,0,0,2.79-1.57422,4.65481,4.65481,0,0,0,.96-1.48535l3.38965,1.95019a6.40906,6.40906,0,0,1-1.45508,2.11524,9.37427,9.37427,0,0,1-2.12988,1.54492,10.86559,10.86559,0,0,1-2.53516.96,11.10731,11.10731,0,0,1-2.63965.33008,9.07572,9.07572,0,0,1-4.16992-.96A10.85974,10.85974,0,0,1,426.40723,157a11.59925,11.59925,0,0,1-2.12989-3.50977A10.936,10.936,0,0,1,423.51172,149.48535Z" transform="translate(-57.4082 -123)"/></svg>