<svg id="Layer_1" data-name="Layer 1" xmlns="http://www.w3.org/2000/svg" viewBox="0 0 77 76.99968"><defs><style>.cls-1{fill:none;stroke:#131313;stroke-miterlimit:10;stroke-width:2px;}.cls-2{fill:#131313;}.cls-3{fill:#efebe3;}</style></defs><title>WP</title><circle class="cls-1" cx="37.49998" cy="37.5001" r="37.49998" transform="translate(-7.0361 11.31591) rotate(-14.16383)"/><circle class="cls-2" cx="38.50004" cy="38.50012" r="32.17854"/><path class="cls-3" d="M50.58681,21.74129c-1.18175.38521-3.70645,2.8475-.505,7.241a10.65712,10.65712,0,0,1,1.3049,9.39955l-2.78849,9.259-7.024-20.89175s1.98326-.14753,2.266-.19261a.80007.80007,0,0,0,.67686-.91447c-.07815-.59348-.51367-.67852-.92839-.65763-.20819.01044-2.65656.19608-5.08934.19608-2.41712,0-4.81866-.18564-4.98864-.19608-.34536-.01907-.83989.0208-.95964.55875a.79871.79871,0,0,0,.61428,1.00639c.48765.05719.16145.01566,2.12564.19957,0,0,1.33607,3.656,3.02619,8.28211l-4.279,12.69815L26.99159,26.74908s1.98326-.14927,2.26612-.19261a.80007.80007,0,0,0,.67678-.91447c-.07815-.59348-.5136-.67852-.92832-.65763-.20826.01044-2.65837.19608-5.08933.19608-2.41894-.00174-4.81875-.18564-4.99046-.19608-.34354-.01907-.83981.01914-.95783.55694a.80087.80087,0,0,0,.61429,1.0082c.48757.05719.16128.01566,2.12556.19775,0,0,9.377,25.67751,9.87329,27.05526a1.63192,1.63192,0,0,0,3.14237-.06763c.4322-1.33085,3.80366-11.11569,5.53357-16.1287,2.62191,7.189,5.63069,15.431,5.90667,16.19459a1.63052,1.63052,0,0,0,3.14064-.06589c.58653-1.80109,3.90428-11.09837,6.75-19.42383C57.5709,26.72305,55.23532,20.22819,50.58681,21.74129Z" transform="translate(1 0.99984)"/></svg>